<svg width="208" height="103" viewBox="0 0 208 103" fill="none" xmlns="http://www.w3.org/2000/svg">
<g filter="url(#filter0_d_360_12)">
<g filter="url(#filter1_d_360_12)">
<rect x="25.8999" y="30.8999" width="159" height="49" rx="24.5" fill="url(#paint0_linear_360_12)"/>
</g>
<path d="M75.4116 57.1831H78.3315C78.2729 58.1401 78.0093 58.9897 77.5405 59.7319C77.0783 60.4741 76.4305 61.0535 75.5972 61.4702C74.7703 61.8869 73.7743 62.0952 72.6089 62.0952C71.6974 62.0952 70.8804 61.939 70.1577 61.6265C69.4351 61.3075 68.8166 60.8517 68.3022 60.2593C67.7944 59.6668 67.4071 58.9507 67.1401 58.1108C66.8732 57.271 66.7397 56.3302 66.7397 55.2886V54.3022C66.7397 53.2606 66.8765 52.3198 67.1499 51.48C67.4299 50.6336 67.827 49.9142 68.3413 49.3218C68.8621 48.7293 69.4839 48.2736 70.2065 47.9546C70.9292 47.6356 71.7365 47.4761 72.6284 47.4761C73.8133 47.4761 74.8127 47.6909 75.6265 48.1206C76.4468 48.5503 77.0815 49.1427 77.5308 49.8979C77.9865 50.6532 78.2599 51.5125 78.3511 52.4761H75.4214C75.3888 51.9032 75.2749 51.4181 75.0796 51.021C74.8843 50.6174 74.5881 50.3146 74.1909 50.1128C73.8003 49.9045 73.2795 49.8003 72.6284 49.8003C72.1401 49.8003 71.7137 49.8914 71.3491 50.0737C70.9845 50.256 70.6785 50.5327 70.4312 50.9038C70.1838 51.2749 69.9982 51.7437 69.8745 52.3101C69.7573 52.87 69.6987 53.5275 69.6987 54.2827V55.2886C69.6987 56.0243 69.7541 56.672 69.8647 57.2319C69.9754 57.7853 70.1447 58.2541 70.3726 58.6382C70.6069 59.0158 70.9064 59.3022 71.271 59.4976C71.6421 59.6864 72.0881 59.7808 72.6089 59.7808C73.2209 59.7808 73.7254 59.6831 74.1226 59.4878C74.5197 59.2925 74.8224 59.0028 75.0308 58.6187C75.2456 58.2345 75.3726 57.756 75.4116 57.1831ZM82.8237 46.8999V61.8999H80.0112V46.8999H82.8237ZM82.4233 56.2456H81.6519C81.6584 55.5099 81.756 54.8328 81.9448 54.2144C82.1336 53.5894 82.4038 53.049 82.7554 52.5933C83.1069 52.131 83.5269 51.7729 84.0151 51.519C84.5099 51.2651 85.0568 51.1382 85.6558 51.1382C86.1766 51.1382 86.6486 51.2131 87.0718 51.3628C87.5015 51.506 87.8693 51.7404 88.1753 52.0659C88.4878 52.3849 88.7287 52.8049 88.8979 53.3257C89.0672 53.8465 89.1519 54.478 89.1519 55.2202V61.8999H86.3198V55.2007C86.3198 54.7319 86.2515 54.3641 86.1147 54.0972C85.9845 53.8237 85.7925 53.6317 85.5386 53.521C85.2912 53.4038 84.9852 53.3452 84.6206 53.3452C84.217 53.3452 83.8719 53.4201 83.5854 53.5698C83.3055 53.7196 83.0809 53.9279 82.9116 54.1948C82.7424 54.4552 82.6187 54.7612 82.5405 55.1128C82.4624 55.4644 82.4233 55.842 82.4233 56.2456ZM96.9937 59.5171V54.8101C96.9937 54.4715 96.9383 54.1818 96.8276 53.9409C96.717 53.6935 96.5444 53.5015 96.3101 53.3647C96.0822 53.228 95.786 53.1597 95.4214 53.1597C95.1089 53.1597 94.8387 53.215 94.6108 53.3257C94.383 53.4299 94.2072 53.5828 94.0835 53.7847C93.9598 53.98 93.8979 54.2111 93.8979 54.478H91.0854C91.0854 54.0288 91.1896 53.6024 91.3979 53.1987C91.6063 52.7951 91.909 52.4403 92.3062 52.1343C92.7033 51.8218 93.1753 51.5776 93.7222 51.4019C94.2756 51.2261 94.894 51.1382 95.5776 51.1382C96.3979 51.1382 97.1271 51.2749 97.7651 51.5483C98.4032 51.8218 98.9045 52.2319 99.269 52.7788C99.6401 53.3257 99.8257 54.0093 99.8257 54.8296V59.3511C99.8257 59.9305 99.8615 60.4058 99.9331 60.7769C100.005 61.1414 100.109 61.4604 100.246 61.7339V61.8999H97.4038C97.2671 61.6134 97.1629 61.2554 97.0913 60.8257C97.0262 60.3895 96.9937 59.9533 96.9937 59.5171ZM97.3647 55.4644L97.3843 57.0562H95.812C95.4409 57.0562 95.1187 57.0985 94.8452 57.1831C94.5718 57.2677 94.3472 57.3882 94.1714 57.5444C93.9956 57.6942 93.8654 57.87 93.7808 58.0718C93.7026 58.2736 93.6636 58.495 93.6636 58.7358C93.6636 58.9767 93.7189 59.1948 93.8296 59.3901C93.9403 59.5789 94.0998 59.7287 94.3081 59.8394C94.5164 59.9435 94.7606 59.9956 95.0405 59.9956C95.4637 59.9956 95.8315 59.911 96.144 59.7417C96.4565 59.5724 96.6974 59.3641 96.8667 59.1167C97.0425 58.8693 97.1336 58.6349 97.1401 58.4136L97.8823 59.605C97.7782 59.8719 97.6349 60.1486 97.4526 60.4351C97.2769 60.7215 97.0522 60.9917 96.7788 61.2456C96.5054 61.493 96.1766 61.6981 95.7925 61.8608C95.4084 62.0171 94.9526 62.0952 94.4253 62.0952C93.7547 62.0952 93.146 61.9618 92.5991 61.6948C92.0588 61.4214 91.6291 61.047 91.3101 60.5718C90.9976 60.09 90.8413 59.5431 90.8413 58.9312C90.8413 58.3778 90.9455 57.8862 91.1538 57.4565C91.3621 57.0269 91.6681 56.6655 92.0718 56.3726C92.4819 56.0731 92.993 55.8485 93.605 55.6987C94.217 55.5425 94.9266 55.4644 95.7339 55.4644H97.3647ZM107.169 51.3335V53.3257H101.017V51.3335H107.169ZM102.541 48.7261H105.353V58.7163C105.353 59.0223 105.392 59.2567 105.47 59.4194C105.555 59.5822 105.679 59.6961 105.841 59.7612C106.004 59.8198 106.209 59.8491 106.457 59.8491C106.632 59.8491 106.789 59.8426 106.925 59.8296C107.069 59.8101 107.189 59.7905 107.287 59.771L107.296 61.8413C107.056 61.9194 106.795 61.9813 106.515 62.0269C106.235 62.0724 105.926 62.0952 105.587 62.0952C104.969 62.0952 104.429 61.9943 103.966 61.7925C103.511 61.5841 103.159 61.2521 102.912 60.7964C102.664 60.3407 102.541 59.7417 102.541 58.9995V48.7261ZM125.197 54.4683V60.103C124.975 60.37 124.634 60.6597 124.171 60.9722C123.709 61.2782 123.113 61.5418 122.384 61.7632C121.655 61.9845 120.773 62.0952 119.738 62.0952C118.82 62.0952 117.983 61.9455 117.228 61.646C116.473 61.34 115.822 60.894 115.275 60.3081C114.735 59.7222 114.318 59.006 114.025 58.1597C113.732 57.3068 113.585 56.3335 113.585 55.2397V54.3511C113.585 53.2573 113.725 52.284 114.005 51.4312C114.292 50.5783 114.699 49.8589 115.226 49.2729C115.753 48.687 116.382 48.241 117.111 47.9351C117.84 47.6291 118.651 47.4761 119.542 47.4761C120.779 47.4761 121.795 47.6779 122.589 48.0815C123.384 48.4787 123.989 49.0321 124.406 49.7417C124.829 50.4448 125.089 51.2521 125.187 52.1636H122.345C122.274 51.6818 122.137 51.2619 121.935 50.9038C121.733 50.5457 121.444 50.2658 121.066 50.064C120.695 49.8621 120.213 49.7612 119.621 49.7612C119.132 49.7612 118.696 49.8621 118.312 50.064C117.934 50.2593 117.615 50.549 117.355 50.9331C117.095 51.3172 116.896 51.7925 116.759 52.3589C116.623 52.9253 116.554 53.5828 116.554 54.3315V55.2397C116.554 55.9819 116.626 56.6395 116.769 57.2124C116.912 57.7788 117.124 58.2573 117.404 58.6479C117.69 59.0321 118.042 59.3218 118.458 59.5171C118.875 59.7124 119.36 59.8101 119.914 59.8101C120.376 59.8101 120.76 59.771 121.066 59.6929C121.378 59.6147 121.629 59.5203 121.818 59.4097C122.013 59.2925 122.163 59.1818 122.267 59.0776V56.5581H119.591V54.4683H125.197ZM130.197 53.3647V65.9624H127.384V51.3335H129.992L130.197 53.3647ZM136.886 56.4995V56.7046C136.886 57.4728 136.795 58.1857 136.613 58.8433C136.437 59.5008 136.177 60.0737 135.832 60.562C135.486 61.0438 135.057 61.4214 134.542 61.6948C134.035 61.9618 133.449 62.0952 132.785 62.0952C132.14 62.0952 131.58 61.965 131.105 61.7046C130.63 61.4442 130.229 61.0796 129.904 60.6108C129.585 60.1356 129.328 59.5854 129.132 58.9604C128.937 58.3354 128.787 57.6649 128.683 56.9487V56.4116C128.787 55.6434 128.937 54.9403 129.132 54.3022C129.328 53.6577 129.585 53.1011 129.904 52.6323C130.229 52.1571 130.626 51.7892 131.095 51.5288C131.57 51.2684 132.127 51.1382 132.765 51.1382C133.436 51.1382 134.025 51.2651 134.533 51.519C135.047 51.7729 135.477 52.1375 135.822 52.6128C136.173 53.0881 136.437 53.6545 136.613 54.312C136.795 54.9696 136.886 55.6987 136.886 56.4995ZM134.064 56.7046V56.4995C134.064 56.0503 134.025 55.6369 133.947 55.2593C133.875 54.8752 133.758 54.5399 133.595 54.2534C133.439 53.967 133.231 53.7456 132.97 53.5894C132.716 53.4266 132.407 53.3452 132.042 53.3452C131.658 53.3452 131.33 53.4071 131.056 53.5308C130.789 53.6545 130.571 53.8335 130.402 54.0679C130.233 54.3022 130.106 54.5822 130.021 54.9077C129.936 55.2332 129.884 55.6011 129.865 56.0112V57.3687C129.897 57.8504 129.988 58.2834 130.138 58.6675C130.288 59.0451 130.519 59.3446 130.832 59.5659C131.144 59.7873 131.554 59.8979 132.062 59.8979C132.433 59.8979 132.746 59.8166 133 59.6538C133.253 59.4845 133.458 59.2534 133.615 58.9604C133.778 58.6675 133.891 58.3289 133.957 57.9448C134.028 57.5607 134.064 57.1473 134.064 56.7046ZM143.81 51.3335V53.3257H137.658V51.3335H143.81ZM139.181 48.7261H141.994V58.7163C141.994 59.0223 142.033 59.2567 142.111 59.4194C142.195 59.5822 142.319 59.6961 142.482 59.7612C142.645 59.8198 142.85 59.8491 143.097 59.8491C143.273 59.8491 143.429 59.8426 143.566 59.8296C143.709 59.8101 143.83 59.7905 143.927 59.771L143.937 61.8413C143.696 61.9194 143.436 61.9813 143.156 62.0269C142.876 62.0724 142.567 62.0952 142.228 62.0952C141.61 62.0952 141.069 61.9943 140.607 61.7925C140.151 61.5841 139.8 61.2521 139.552 60.7964C139.305 60.3407 139.181 59.7417 139.181 58.9995V48.7261Z" fill="#011C17"/>
</g>
<g filter="url(#filter2_d_360_12)">
<path d="M18.1956 34.8999C17.294 34.8999 16.6102 34.3682 16.298 33.4285C15.4536 30.8886 14.6091 28.3489 13.7647 25.8095C12.1841 21.0569 10.6036 16.3044 9.0231 11.5518C8.59138 10.2531 9.33123 9.04469 10.6654 8.90545C10.9688 8.8838 11.2734 8.92567 11.5597 9.0284C17.0281 10.842 22.4944 12.6624 27.9584 14.4896C29.7829 15.0979 31.6089 15.7004 33.4309 16.3144C34.8643 16.7973 35.3553 18.3802 34.4244 19.4843C34.1383 19.823 33.7651 20.0095 33.348 20.1357C30.517 20.985 27.6885 21.8457 24.8543 22.686C23.7388 23.0166 23.0258 23.7193 22.6941 24.8299C21.8399 27.6891 20.984 30.5449 20.1266 33.3976C19.8388 34.356 19.1347 34.904 18.1956 34.8999Z" fill="url(#paint1_linear_360_12)"/>
</g>
<defs>
<filter id="filter0_d_360_12" x="2.8999" y="7.8999" width="205" height="95" filterUnits="userSpaceOnUse" color-interpolation-filters="sRGB">
<feFlood flood-opacity="0" result="BackgroundImageFix"/>
<feColorMatrix in="SourceAlpha" type="matrix" values="0 0 0 0 0 0 0 0 0 0 0 0 0 0 0 0 0 0 127 0" result="hardAlpha"/>
<feOffset/>
<feGaussianBlur stdDeviation="11.5"/>
<feComposite in2="hardAlpha" operator="out"/>
<feColorMatrix type="matrix" values="0 0 0 0 0.141176 0 0 0 0 0.890196 0 0 0 0 0.760784 0 0 0 0.66 0"/>
<feBlend mode="normal" in2="BackgroundImageFix" result="effect1_dropShadow_360_12"/>
<feBlend mode="normal" in="SourceGraphic" in2="effect1_dropShadow_360_12" result="shape"/>
</filter>
<filter id="filter1_d_360_12" x="21.8999" y="30.8999" width="167" height="57" filterUnits="userSpaceOnUse" color-interpolation-filters="sRGB">
<feFlood flood-opacity="0" result="BackgroundImageFix"/>
<feColorMatrix in="SourceAlpha" type="matrix" values="0 0 0 0 0 0 0 0 0 0 0 0 0 0 0 0 0 0 127 0" result="hardAlpha"/>
<feOffset dy="4"/>
<feGaussianBlur stdDeviation="2"/>
<feComposite in2="hardAlpha" operator="out"/>
<feColorMatrix type="matrix" values="0 0 0 0 0 0 0 0 0 0 0 0 0 0 0 0 0 0 0.25 0"/>
<feBlend mode="normal" in2="BackgroundImageFix" result="effect1_dropShadow_360_12"/>
<feBlend mode="normal" in="SourceGraphic" in2="effect1_dropShadow_360_12" result="shape"/>
</filter>
<filter id="filter2_d_360_12" x="-9.72748e-05" y="-9.72748e-05" width="43.8" height="43.8" filterUnits="userSpaceOnUse" color-interpolation-filters="sRGB">
<feFlood flood-opacity="0" result="BackgroundImageFix"/>
<feColorMatrix in="SourceAlpha" type="matrix" values="0 0 0 0 0 0 0 0 0 0 0 0 0 0 0 0 0 0 127 0" result="hardAlpha"/>
<feOffset/>
<feGaussianBlur stdDeviation="4.45"/>
<feComposite in2="hardAlpha" operator="out"/>
<feColorMatrix type="matrix" values="0 0 0 0 0.14902 0 0 0 0 0.898039 0 0 0 0 0.768627 0 0 0 1 0"/>
<feBlend mode="normal" in2="BackgroundImageFix" result="effect1_dropShadow_360_12"/>
<feBlend mode="normal" in="SourceGraphic" in2="effect1_dropShadow_360_12" result="shape"/>
</filter>
<linearGradient id="paint0_linear_360_12" x1="105.4" y1="79.8999" x2="105.4" y2="30.8999" gradientUnits="userSpaceOnUse">
<stop stop-color="#067965"/>
<stop offset="0.451923" stop-color="#26E4C4"/>
<stop offset="1" stop-color="#0BDFBB"/>
</linearGradient>
<linearGradient id="paint1_linear_360_12" x1="21.8999" y1="8.8999" x2="21.8999" y2="34.8999" gradientUnits="userSpaceOnUse">
<stop stop-color="#067965"/>
<stop offset="0.451923" stop-color="#26E4C4"/>
<stop offset="1" stop-color="#0BDFBB"/>
</linearGradient>
</defs>
</svg>
