<svg width="29" height="28" viewBox="0 0 29 28" fill="none" xmlns="http://www.w3.org/2000/svg">
<path d="M14.1012 0C6.31028 0 0 6.31028 0 14.1012C0 20.3409 4.03646 25.6113 9.64168 27.4797C10.3467 27.603 10.6111 27.18 10.6111 26.8099C10.6111 26.475 10.5935 25.3645 10.5935 24.1835C7.05059 24.8357 6.13401 23.3198 5.85199 22.5266C5.69335 22.1212 5.00592 20.8697 4.40662 20.5348C3.91308 20.2704 3.20802 19.6183 4.38899 19.6006C5.49946 19.583 6.29265 20.623 6.55705 21.046C7.82615 23.1788 9.8532 22.5795 10.664 22.2093C10.7874 21.2928 11.1576 20.6758 11.563 20.3233C8.42545 19.9708 5.14693 18.7546 5.14693 13.3609C5.14693 11.8274 5.69335 10.5583 6.5923 9.57117C6.45129 9.21864 5.95775 7.77327 6.73331 5.83436C6.73331 5.83436 7.91428 5.4642 10.6111 7.27973C11.7393 6.96245 12.9379 6.80382 14.1365 6.80382C15.3351 6.80382 16.5337 6.96245 17.6617 7.27973C20.3586 5.44658 21.5396 5.83436 21.5396 5.83436C22.3151 7.77327 21.8216 9.21864 21.6806 9.57117C22.5795 10.5583 23.126 11.8097 23.126 13.3609C23.126 18.7722 19.8298 19.9708 16.6923 20.3233C17.2035 20.764 17.6441 21.6101 17.6441 22.932C17.6441 24.8181 17.6265 26.3339 17.6265 26.8099C17.6265 27.18 17.8909 27.6207 18.596 27.4797C24.3358 25.5419 28.2008 20.1595 28.2024 14.1012C28.2024 6.31028 21.8921 0 14.1012 0Z" fill="#B0F8EC"/>
</svg>
