<svg width="28" height="28" viewBox="0 0 28 28" fill="none" xmlns="http://www.w3.org/2000/svg">
<path d="M0 24.8875V4.1811C0.0920086 4.12772 0.0702349 4.02657 0.0870914 3.9486C0.475494 2.43912 1.43561 1.51616 2.94287 1.14739C3.0131 1.13053 3.10511 1.16916 3.15357 1.07715H23.7551C23.7867 1.15371 23.859 1.12491 23.9145 1.13615C25.6556 1.48736 26.9023 2.94907 26.9044 4.69808C26.9115 11.2581 26.9115 17.8179 26.9044 24.3775C26.898 25.3314 26.5161 26.2444 25.8415 26.9188C25.1669 27.5933 24.2538 27.9748 23.2999 27.9809C16.7399 27.9907 10.1802 27.9907 3.62064 27.9809C1.92867 27.9809 0.481814 26.7945 0.0948163 25.1424C0.0730433 25.0588 0.0941156 24.95 0 24.8875ZM11.8277 13.9664C11.9625 13.8828 12.0644 13.8175 12.1676 13.7557C13.4627 12.9767 13.6903 10.5948 12.0833 9.72242C11.5881 9.43954 11.0297 9.2859 10.4595 9.27568C8.73519 9.27568 7.01091 9.27569 5.28663 9.26936C5.08716 9.26936 5.04221 9.32345 5.04291 9.51731C5.04853 12.7999 5.04853 16.0823 5.04291 19.3644C5.04291 19.5611 5.09278 19.6145 5.28944 19.6138C6.85639 19.606 8.42335 19.6074 9.9896 19.6096C11.0256 19.6096 11.9829 19.3771 12.799 18.6964C13.2463 18.3354 13.5422 17.8199 13.6285 17.2516C13.6635 16.965 13.6778 16.6762 13.6713 16.3876C13.6903 15.3642 13.1846 14.6681 12.3144 14.1982C12.1641 14.1209 12.0117 14.0549 11.8277 13.9664ZM19.1322 16.3778C19.9553 16.3778 20.7785 16.3707 21.6016 16.3827C21.8018 16.3827 21.8566 16.3166 21.8594 16.1291C21.872 15.7178 21.8364 15.3064 21.7534 14.9034C21.2814 12.7758 19.175 11.4405 17.1438 11.9961C14.2915 12.7758 13.4037 16.3511 15.2474 18.5145C16.2307 19.6728 17.5343 19.9748 18.9826 19.7142C20.2721 19.4831 21.176 18.766 21.6094 17.4995C21.6684 17.3253 21.648 17.267 21.4513 17.2726C21.0299 17.2846 20.6085 17.2853 20.1906 17.2726C20.1061 17.2633 20.0207 17.2788 19.9449 17.3172C19.8691 17.3556 19.806 17.4153 19.7636 17.489C19.3077 18.145 18.5036 18.4225 17.7225 18.2195C16.9717 18.0249 16.5117 17.4707 16.4112 16.6622C16.3845 16.4515 16.4239 16.3686 16.6606 16.3728C17.4894 16.3862 18.3125 16.3778 19.1357 16.3778H19.1322ZM18.0491 10.9938C18.4867 10.9938 18.9236 11.0015 19.3604 10.9938C19.628 10.9875 20.0024 11.1167 20.133 10.9369C20.2637 10.7571 20.166 10.3995 20.1815 10.1207C20.1892 9.9802 20.1302 9.94368 20.0003 9.94438C18.715 9.94719 17.4297 9.94719 16.1443 9.94438C16.0109 9.94438 15.9568 9.9809 15.9638 10.1228C15.9772 10.341 15.9772 10.5599 15.9638 10.7781C15.9512 10.9551 16.0165 11.0015 16.1851 10.9994C16.8109 10.9889 17.4318 10.9938 18.0526 10.9938H18.0491Z" fill="#B0F8EC"/>
<path d="M8.73029 17.8491C8.31871 17.8491 7.90783 17.8448 7.49625 17.8491C7.3628 17.8491 7.31223 17.8111 7.31293 17.6713C7.31785 16.8488 7.31293 16.0263 7.31293 15.2031C7.31293 15.0914 7.3326 15.0183 7.46815 15.0212C8.35101 15.0401 9.23739 14.9629 10.1167 15.0598C11.1169 15.1687 11.6556 16.0108 11.3459 16.9275C11.1689 17.4508 10.6217 17.8132 9.93623 17.8406C9.53448 17.8568 9.13133 17.8406 8.72888 17.8406L8.73029 17.8491Z" fill="#B0F8EC"/>
<path d="M8.74504 11.0589C9.12642 11.087 9.59349 11.0055 10.0521 11.1067C10.6885 11.2471 11.0354 11.663 11.0256 12.26C11.0158 12.8571 10.6449 13.2701 10.0107 13.3782C9.37646 13.4864 8.75277 13.4056 8.12346 13.4253C7.91275 13.4316 7.70204 13.4197 7.49134 13.4288C7.35087 13.4344 7.31013 13.3811 7.31083 13.2462C7.31645 12.5803 7.31645 11.9147 7.31083 11.2492C7.31083 11.0989 7.35999 11.0526 7.50749 11.0561C7.89378 11.0638 8.28219 11.0589 8.74504 11.0589Z" fill="#B0F8EC"/>
<path d="M18.0779 15.0576C17.5975 15.0576 17.1171 15.0484 16.6367 15.0618C16.4414 15.0674 16.426 14.9915 16.4576 14.8328C16.6297 14.0187 17.3208 13.428 18.0997 13.4406C18.8786 13.4533 19.548 14.0405 19.7151 14.8623C19.7531 15.0449 19.6955 15.0625 19.5416 15.0604C19.0556 15.0527 18.5668 15.0576 18.0779 15.0576Z" fill="#B0F8EC"/>
</svg>
