<svg width="45" height="42" viewBox="0 0 45 42" fill="none" xmlns="http://www.w3.org/2000/svg">
<path d="M4.5 6C4.5 4.34315 5.84315 3 7.5 3H37.5C39.1569 3 40.5 4.34315 40.5 6V36C40.5 37.6569 39.1569 39 37.5 39H7.5C5.84315 39 4.5 37.6569 4.5 36V6Z" fill="white"/>
<path d="M21.595 24.0363L25.7962 19.9438H36.2325L26.9875 29.1888L21.595 24.0363Z" fill="#DFE6E4"/>
<path d="M8.5 21.2975L13.7487 26.6712L36.2325 4H25.7962L8.5 21.2975Z" fill="#DFE6E4"/>
<path d="M16.3362 29.2399L21.6599 34.4849L26.9874 29.1886L21.5949 24.0361L16.3362 29.2399Z" fill="#DFE6E4"/>
<path d="M21.66 34.4847L26.9875 29.1885L36.1025 38.4072H25.6075L21.66 34.4847Z" fill="#C6D3D0"/>
<path d="M21.66 34.4849L26.6238 32.8337L24.9513 31.2124L21.66 34.4849Z" fill="#C6D3D0"/>
</svg>
