<svg width="45" height="42" viewBox="0 0 45 42" fill="none" xmlns="http://www.w3.org/2000/svg">
<path d="M34.5234 3H10.4766C7.1758 3 4.5 5.74441 4.5 9.12981V32.8702C4.5 36.2556 7.1758 39 10.4766 39H34.5234C37.8242 39 40.5 36.2556 40.5 32.8702V9.12981C40.5 5.74441 37.8242 3 34.5234 3Z" fill="white"/>
<path d="M11.7001 28.9494V13.1471C11.7001 13.0319 11.7496 12.9742 11.8487 12.9741L12.0054 12.9736L12.2732 12.9707L12.6453 12.9634L13.8922 12.9371L15.2291 12.9123C15.6993 12.9041 16.1654 12.9 16.6275 12.8999C17.8815 12.8999 18.9377 13.0565 19.796 13.3698C20.5704 13.6312 21.2765 14.0621 21.863 14.6309C22.3602 15.1239 22.7445 15.7188 22.9893 16.3745C23.2208 17.0126 23.3381 17.6864 23.336 18.3651C23.336 19.6843 23.0306 20.7724 22.42 21.6295C21.8228 22.4656 20.9898 23.1051 20.0272 23.4663L19.9446 23.4966C18.9395 23.8711 17.8265 24.0065 16.6058 24.015L16.4161 24.0156L16.1346 24.0141L15.9926 24.0121L15.8343 24.0083L15.7389 24.0046L15.6809 24.0016L15.5384 23.9964L15.3641 23.9928L15.1018 23.9909L15.0434 23.9908V28.9247C15.0478 28.9549 15.045 28.9857 15.0353 29.0147C15.0257 29.0437 15.0094 29.0701 14.9877 29.0917C14.9661 29.1133 14.9397 29.1295 14.9107 29.1392C14.8817 29.1488 14.8508 29.1516 14.8206 29.1473H11.8735C11.7578 29.1474 11.7 29.0814 11.7001 28.9494ZM15.0436 15.9416V21.0957C15.2578 21.1123 15.4558 21.1205 15.6374 21.1204H16.4544C17.0177 21.1185 17.5777 21.0347 18.1168 20.8717L18.2243 20.8382C18.7148 20.6928 19.1531 20.4094 19.4868 20.022C19.797 19.6565 19.9577 19.1529 19.9688 18.5111L19.9696 18.4393C19.9825 17.9609 19.858 17.4889 19.6105 17.0792C19.3505 16.6829 18.9745 16.3763 18.5338 16.2012C17.9584 15.9777 17.3437 15.8726 16.7267 15.8922L16.4128 15.8931L16.2147 15.8948L16.0257 15.8973L15.7591 15.9024L15.5645 15.9079L15.4634 15.9117L15.3284 15.918L15.2134 15.9251L15.1478 15.9302L15.0911 15.9357L15.0662 15.9386L15.0436 15.9416ZM32.9069 20.1585C32.4751 19.9369 32.017 19.7704 31.5436 19.6629L31.4341 19.6392C30.9132 19.5199 30.3815 19.4541 29.8472 19.443L29.7138 19.4414C29.4006 19.4329 29.0878 19.4704 28.7855 19.5527C28.5931 19.5956 28.4221 19.7051 28.3026 19.8617C28.2219 19.9871 28.179 20.1331 28.179 20.2822C28.1835 20.4268 28.2357 20.5659 28.3274 20.6778C28.4588 20.8312 28.6168 20.9599 28.7937 21.0575L28.8473 21.0859C29.2003 21.2757 29.5639 21.4449 29.9365 21.5927C30.7672 21.8707 31.5609 22.2486 32.3004 22.718C32.8041 23.0356 33.221 23.4732 33.5135 23.9916C33.7592 24.4825 33.8824 25.0255 33.8724 25.5742C33.887 26.2989 33.6797 27.0108 33.2782 27.6145C32.8483 28.2273 32.2511 28.7037 31.5578 28.9869C30.8317 29.3056 29.9401 29.4703 28.8829 29.4811L28.7731 29.4816C28.1178 29.4882 27.4633 29.4309 26.8191 29.3106L26.6813 29.2838C26.1389 29.1844 25.611 29.0183 25.1095 28.7891C25.059 28.7632 25.0164 28.7243 24.986 28.6765C24.9555 28.6287 24.9384 28.5736 24.9362 28.517V25.8216C24.9333 25.7954 24.9375 25.769 24.9484 25.745C24.9593 25.721 24.9765 25.7005 24.9982 25.6855C25.0194 25.6735 25.0439 25.6682 25.0682 25.6704C25.0925 25.6726 25.1156 25.6822 25.1343 25.6979C25.7265 26.0467 26.3695 26.3012 27.0402 26.4522C27.6314 26.6003 28.2379 26.6791 28.8473 26.6872C29.4248 26.6872 29.8497 26.613 30.1221 26.4646C30.2451 26.4082 30.3491 26.3175 30.4216 26.2034C30.494 26.0893 30.5319 25.9567 30.5306 25.8216C30.5306 25.6075 30.4068 25.4015 30.1593 25.2034C30.0555 25.1205 29.9067 25.0302 29.7129 24.9327L29.6202 24.8872L29.5213 24.8407L29.4694 24.8171L29.3608 24.769L29.3041 24.7445L29.1859 24.6949L29.1244 24.6697L28.9967 24.6186L28.9304 24.5927L28.793 24.5399L28.6493 24.4861C27.8719 24.2161 27.1349 23.8417 26.4585 23.3733C25.9746 23.0372 25.5762 22.5925 25.2951 22.075C25.0518 21.5877 24.9287 21.0492 24.9362 20.5047C24.9347 19.8504 25.1146 19.2084 25.456 18.65C25.8452 18.0351 26.4039 17.5455 27.065 17.2405C27.791 16.878 28.6986 16.6966 29.7878 16.6963C30.4258 16.6912 31.0632 16.7367 31.694 16.8324C32.1507 16.8903 32.5972 17.011 33.0209 17.191C33.0891 17.2105 33.144 17.2608 33.1694 17.327C33.1863 17.3874 33.1945 17.4497 33.1942 17.5125V20.0102C33.1978 20.0692 33.1694 20.1258 33.1199 20.1585C33.0869 20.1749 33.0504 20.1835 33.0134 20.1835C32.9765 20.1835 32.94 20.1749 32.9069 20.1585Z" fill="#C6D3D0"/>
</svg>
