<svg width="45" height="42" viewBox="0 0 45 42" fill="none" xmlns="http://www.w3.org/2000/svg">
<path d="M4.5 6C4.5 4.34315 5.84315 3 7.5 3H37.5C39.1569 3 40.5 4.34315 40.5 6V36C40.5 37.6569 39.1569 39 37.5 39H7.5C5.84315 39 4.5 37.6569 4.5 36V6Z" fill="white"/>
<path d="M17.667 26.167H22.333V30.834C22.3328 33.4172 20.2502 35.4998 17.667 35.5C15.0836 35.5 13.0002 33.4173 13 30.834C13 28.2505 15.0835 26.167 17.667 26.167Z" fill="#C6D3D0" stroke="#E4F3EF"/>
<path d="M17.667 15.8335H22.333V25.1665H17.667C15.0836 25.1665 13.0002 23.0838 13 20.5005C13 17.917 15.0835 15.8335 17.667 15.8335Z" fill="#C6D3D0" stroke="#E4F3EF"/>
<path d="M17.667 5.5H22.333V14.833H17.667C15.0836 14.833 13.0002 12.7504 13 10.167C13 7.58347 15.0835 5.5 17.667 5.5Z" fill="#C6D3D0" stroke="#E4F3EF"/>
<path d="M28.0004 5.5C30.5837 5.50019 32.6664 7.58359 32.6664 10.167C32.6662 12.7502 30.5836 14.8328 28.0004 14.833H23.3334V5.5H28.0004Z" fill="#C6D3D0" stroke="#E4F3EF"/>
<path d="M27.1841 15.6055H23.1052V19.6844L24.7368 17.237L27.1841 15.6055Z" fill="#E4F3EF" stroke="#E4F3EF"/>
<path d="M28.0004 15.8335C30.5837 15.8337 32.6664 17.9171 32.6664 20.5005C32.6662 23.0837 30.5836 25.1663 28.0004 25.1665C25.417 25.1665 23.3336 23.0838 23.3334 20.5005C23.3334 17.917 25.4168 15.8335 28.0004 15.8335Z" fill="#C6D3D0" stroke="#E4F3EF"/>
</svg>
