<svg width="45" height="42" viewBox="0 0 45 42" fill="none" xmlns="http://www.w3.org/2000/svg">
<rect x="13.4982" y="11.998" width="18" height="18" fill="#C6D3D0"/>
<path d="M34.3907 15.7585C34.676 16.3413 34.8769 16.9555 35.0442 17.5801C36.2911 22.1992 34.9517 27.0622 31.5016 30.3788C29.6166 32.1919 27.3794 33.361 24.7981 33.7935C20.7527 34.4714 17.1235 33.4967 13.9999 30.8266C11.6473 28.8171 10.1969 26.2545 9.69434 23.1975C9.05915 19.3347 9.96587 15.8412 12.4236 12.793C14.4305 10.304 17.0386 8.73997 20.1914 8.20882C24.6227 7.46392 28.4747 8.69911 31.7127 11.8242C31.7398 11.8503 31.7624 11.881 31.7869 11.9098C31.2226 11.9124 30.6583 11.918 30.0937 11.9157C29.98 11.9157 29.9267 11.9484 29.9117 12.0647C29.862 12.4459 29.8058 12.8263 29.7506 13.2065C29.6934 13.5987 29.6255 13.988 29.5781 14.3805C29.533 14.7564 29.4415 15.1257 29.4239 15.5052C29.3987 15.5807 29.3608 15.6546 29.3971 15.7373C29.3948 15.7419 29.3936 15.7469 29.3936 15.752C29.3936 15.7571 29.3948 15.7622 29.3971 15.7667C29.3873 15.8926 29.4866 15.8321 29.5278 15.8321C30.9746 15.836 32.4215 15.8371 33.8686 15.8354C34.011 15.8216 34.1584 15.868 34.2963 15.8004C34.3144 15.8029 34.3328 15.8003 34.3494 15.7929C34.3661 15.7855 34.3804 15.7736 34.3907 15.7585ZM25.2454 27.7166C25.2696 27.7819 25.3258 27.7617 25.3716 27.7617C26.9071 27.7617 28.4428 27.7617 29.9787 27.7617C30.0296 27.7617 30.0921 27.781 30.1152 27.7071C30.195 27.158 30.277 26.6092 30.3531 26.0594C30.6606 23.8368 31.0122 21.6233 31.2745 19.3964C31.3775 18.5228 31.4 17.6488 31.2311 16.7774C31.201 16.6227 31.1422 16.5835 30.989 16.5852C30.1777 16.5943 29.3663 16.5881 28.555 16.5924C28.4426 16.5924 28.4106 16.575 28.4302 16.4492C28.5416 15.7393 28.6361 15.027 28.7491 14.3174C28.7713 14.1795 28.72 14.154 28.6106 14.1262C27.9225 13.9497 27.2216 13.8595 26.5152 13.8095C26.0055 13.7735 25.4941 13.7546 24.9834 13.7281C24.954 13.6588 24.922 13.6552 24.887 13.7245C24.8329 13.7404 24.7753 13.739 24.722 13.7206C24.6802 13.6582 24.637 13.6591 24.5929 13.7186C24.0701 13.7335 23.5473 13.7335 23.0246 13.7186C22.9808 13.6588 22.9376 13.6582 22.8955 13.7203C22.8527 13.7248 22.8099 13.733 22.7671 13.7333C21.6784 13.7458 20.591 13.7873 19.5081 13.9082C18.7011 13.9981 17.9051 14.137 17.1425 14.4312C16.1296 14.8234 15.4513 15.5278 15.1167 16.5639C14.9677 17.0215 14.8857 17.4912 14.8203 17.9665C14.8017 18.1005 14.8465 18.1148 14.9628 18.1145C16.4381 18.1106 17.9133 18.1106 19.3882 18.1145C19.5326 18.1145 19.58 18.0694 19.6071 17.9308C19.7052 17.4405 19.9871 17.1137 20.4763 16.9709C20.7373 16.8943 21.0045 16.8409 21.2748 16.8113C22.208 16.7094 23.1445 16.7336 24.0803 16.7437C24.505 16.7479 24.9298 16.7689 25.3474 16.8493C26.0035 16.9751 26.3247 17.298 26.4119 17.9279C26.4321 18.0686 26.436 18.2112 26.4237 18.3528C26.3681 18.9487 26.3041 19.5435 26.2401 20.1387C26.2361 20.1767 26.2584 20.2339 26.2022 20.2522C26.146 20.2705 26.1156 20.2237 26.0842 20.1868C25.8401 19.8926 25.533 19.6815 25.1876 19.5226C24.5041 19.2079 23.7728 19.102 23.0344 19.0412C21.6869 18.93 20.3368 18.9496 18.9879 19.0189C18.091 19.0647 17.199 19.1588 16.3331 19.4246C15.2353 19.7615 14.4668 20.4378 14.0979 21.5449C13.9636 21.9359 13.8643 22.3381 13.8012 22.7467C13.6917 23.4949 13.5617 24.2408 13.6136 25.002C13.6927 26.1627 14.2436 26.9779 15.3405 27.4054C16.0319 27.6751 16.7556 27.794 17.4885 27.8522C18.9811 27.9721 20.4808 27.9742 21.9737 27.8584C22.4667 27.8211 22.9539 27.7279 23.4258 27.5806C24.175 27.3449 24.7377 26.8488 25.2556 26.2876C25.2971 26.2428 25.3232 26.1745 25.4 26.1676C25.4265 26.2176 25.4085 26.2657 25.4 26.3114C25.3311 26.7246 25.2592 27.1371 25.1925 27.5505C25.1837 27.609 25.1272 27.6937 25.2454 27.7166Z" fill="white"/>
<path d="M29.4252 15.5056C29.4429 15.1261 29.5343 14.7567 29.5794 14.3809C29.6268 13.9886 29.6948 13.5984 29.752 13.2068C29.8072 12.8267 29.8634 12.4462 29.913 12.0651C29.9281 11.9491 29.9813 11.9154 30.095 11.916C30.6597 11.9183 31.2239 11.9128 31.7882 11.9102C32.0875 11.9131 32.3865 11.918 32.6858 11.9187C33.3769 11.9187 34.0683 11.9209 34.7593 11.917C34.8681 11.917 34.8985 11.9435 34.8815 12.0556C34.7436 12.9639 34.6116 13.8733 34.4773 14.7819C34.4479 14.981 34.4162 15.1794 34.3855 15.3778C34.3038 15.415 34.2548 15.4801 34.2633 15.5677C34.2741 15.6942 34.2078 15.7063 34.1055 15.7059C32.6162 15.7038 31.1267 15.7038 29.6369 15.7059C29.4942 15.7059 29.4232 15.6494 29.4252 15.5056Z" fill="#C6D3D0"/>
<path d="M29.4252 15.5056C29.4232 15.6494 29.4941 15.7059 29.6369 15.7056C31.1264 15.7034 32.616 15.7034 34.1055 15.7056C34.2077 15.7056 34.2741 15.6938 34.2633 15.5673C34.2558 15.4797 34.3038 15.4147 34.3855 15.3774C34.3766 15.4742 34.368 15.5709 34.3597 15.6677C34.3064 15.752 34.2215 15.7367 34.1417 15.7367H29.3984C29.3621 15.6549 29.4 15.5811 29.4252 15.5056Z" fill="white"/>
<path d="M29.3985 15.7374H34.1418C34.2215 15.7374 34.3052 15.7528 34.3598 15.6685C34.3734 15.6787 34.3837 15.6929 34.3893 15.7091C34.3948 15.7253 34.3953 15.7428 34.3908 15.7593C34.3804 15.7741 34.3662 15.7857 34.3497 15.793C34.3331 15.8002 34.3149 15.8027 34.297 15.8002C34.1575 15.7381 34.0118 15.7793 33.869 15.7757C33.7984 15.7737 33.7278 15.7704 33.6569 15.7704C32.2373 15.7691 30.8175 15.7681 29.3975 15.7675C29.3952 15.7628 29.3941 15.7576 29.3943 15.7523C29.3945 15.7471 29.3959 15.742 29.3985 15.7374Z" fill="white"/>
<path d="M25.2455 27.7165C25.305 27.7136 25.3644 27.708 25.4236 27.708C26.9874 27.708 28.5509 27.708 30.1143 27.708C30.0911 27.7819 30.0287 27.7626 29.9777 27.7626C28.4422 27.7626 26.9065 27.7626 25.3706 27.7626C25.3259 27.7616 25.2697 27.7809 25.2455 27.7165Z" fill="white"/>
<path d="M29.3974 15.7671C30.817 15.7671 32.2368 15.7681 33.6569 15.77C33.7278 15.77 33.7983 15.7733 33.8689 15.7753C33.8689 15.7952 33.8689 15.8148 33.8689 15.8347C32.4216 15.8347 30.9747 15.8337 29.5281 15.8315C29.4869 15.8315 29.3876 15.8929 29.3974 15.7671Z" fill="white"/>
<path d="M33.8694 15.8347C33.8694 15.8148 33.8694 15.7952 33.8694 15.7752C34.0122 15.7788 34.1579 15.7376 34.2974 15.7997C34.1592 15.868 34.0125 15.821 33.8694 15.8347Z" fill="white"/>
<path d="M23.0224 13.7192C22.9807 13.7338 22.9354 13.7344 22.8933 13.7209C22.9358 13.6588 22.9786 13.6594 23.0224 13.7192Z" fill="white"/>
<path d="M24.7211 13.721C24.679 13.7341 24.6338 13.7334 24.592 13.7191C24.6348 13.6596 24.6793 13.6586 24.7211 13.721Z" fill="white"/>
<path d="M24.9825 13.7286L24.8861 13.725C24.9211 13.6557 24.9531 13.6593 24.9825 13.7286Z" fill="white"/>
<path d="M22.3803 21.7794C23.3278 21.7794 24.0839 21.7794 24.8358 21.881C25.0631 21.9058 25.2857 21.9635 25.4964 22.0523C25.751 22.1664 25.9059 22.3645 25.9271 22.6407C25.9653 23.1385 25.8559 23.614 25.6533 24.0661C25.5441 24.3099 25.3416 24.4642 25.0955 24.5655C24.7132 24.7231 24.3094 24.7855 23.9029 24.8123C22.577 24.8996 21.2504 24.9123 19.9254 24.7897C19.616 24.7613 19.3115 24.7021 19.0305 24.5593C18.6828 24.3831 18.5155 24.0775 18.5587 23.6899C18.5913 23.4094 18.6158 23.1283 18.7021 22.8557C18.8243 22.4694 19.0733 22.2141 19.4517 22.0765C19.9169 21.9072 20.4028 21.8559 20.8913 21.8199C21.451 21.7797 22.0114 21.7771 22.3803 21.7794Z" fill="white"/>
</svg>
