<svg width="45" height="42" viewBox="0 0 45 42" fill="none" xmlns="http://www.w3.org/2000/svg">
<path d="M7.30258 9.52247C7.22909 7.40938 8.87522 5.46094 11.1006 5.46094H33.9027C36.128 5.46094 37.7742 7.40938 37.7007 9.52247C37.63 11.5522 37.7218 14.1815 38.3834 16.3253C39.0473 18.4759 40.1666 19.8349 42 20.0098V21.9902C40.1666 22.165 39.0473 23.524 38.3834 25.6747C37.7218 27.8184 37.63 30.4478 37.7007 32.4775C37.7742 34.5906 36.128 36.5387 33.9027 36.5387H11.1006C8.87522 36.5387 7.22909 34.5902 7.30258 32.4775C7.37327 30.4478 7.28149 27.8184 6.6195 25.6747C5.95597 23.5244 4.83353 22.165 3.00012 21.9902V20.0098C4.83353 19.8352 5.95597 18.4759 6.6195 16.3253C7.28149 14.1815 7.37296 11.5522 7.30258 9.52247Z" fill="white"/>
<g filter="url(#filter0_d_388_315)">
<path d="M23.4646 29.3742C27.0672 29.3742 29.2382 27.6102 29.2382 24.7008C29.2382 22.5015 27.6892 20.9093 25.3891 20.6573V20.5656C27.079 20.2907 28.405 18.7215 28.405 16.9689C28.405 14.4718 26.4336 12.8452 23.4294 12.8452H16.67V29.3742H23.4646ZM19.2987 14.9414H22.7957C24.6968 14.9414 25.7764 15.789 25.7764 17.324C25.7764 18.962 24.5208 19.8783 22.2442 19.8783H19.2987V14.9414ZM19.2987 27.278V21.8371H22.7722C25.26 21.8371 26.5509 22.7534 26.5509 24.5403C26.5509 26.3272 25.2953 27.278 22.9248 27.278H19.2987Z" fill="#C6D3D0"/>
</g>
<defs>
<filter id="filter0_d_388_315" x="15.4417" y="11.924" width="15.0247" height="18.9854" filterUnits="userSpaceOnUse" color-interpolation-filters="sRGB">
<feFlood flood-opacity="0" result="BackgroundImageFix"/>
<feColorMatrix in="SourceAlpha" type="matrix" values="0 0 0 0 0 0 0 0 0 0 0 0 0 0 0 0 0 0 127 0" result="hardAlpha"/>
<feOffset dy="0.307075"/>
<feGaussianBlur stdDeviation="0.61415"/>
<feColorMatrix type="matrix" values="0 0 0 0 0 0 0 0 0 0 0 0 0 0 0 0 0 0 0.15 0"/>
<feBlend mode="normal" in2="BackgroundImageFix" result="effect1_dropShadow_388_315"/>
<feBlend mode="normal" in="SourceGraphic" in2="effect1_dropShadow_388_315" result="shape"/>
</filter>
</defs>
</svg>
