<svg width="45" height="42" viewBox="0 0 45 42" fill="none" xmlns="http://www.w3.org/2000/svg">
<path d="M38.5938 8.99062L37.4233 28.2844L26.304 3L38.5938 8.99062ZM30.8794 33.9375L22.5 39L14.1206 33.9375L15.8231 29.5781H29.2035L30.8794 33.9375ZM22.5 12.5906L26.8892 23.8969H18.1108L22.5 12.5906ZM7.5767 28.2844L6.40625 8.99062L18.696 3L7.5767 28.2844Z" fill="url(#paint0_linear_398_78)"/>
<path d="M38.5938 8.99062L37.4233 28.2844L26.304 3L38.5938 8.99062ZM30.8794 33.9375L22.5 39L14.1206 33.9375L15.8231 29.5781H29.2035L30.8794 33.9375ZM22.5 12.5906L26.8892 23.8969H18.1108L22.5 12.5906ZM7.5767 28.2844L6.40625 8.99062L18.696 3L7.5767 28.2844Z" fill="url(#paint1_linear_398_78)"/>
<defs>
<linearGradient id="paint0_linear_398_78" x1="9.38665" y1="26.5491" x2="35.5059" y2="14.8093" gradientUnits="userSpaceOnUse">
<stop stop-color="#E40035"/>
<stop offset="0.24" stop-color="#F60A48"/>
<stop offset="0.352" stop-color="#F20755"/>
<stop offset="0.494" stop-color="#DC087D"/>
<stop offset="0.745" stop-color="#9717E7"/>
<stop offset="1" stop-color="#6C00F5"/>
</linearGradient>
<linearGradient id="paint1_linear_398_78" x1="13.1185" y1="6.63628" x2="30.9422" y2="25.8666" gradientUnits="userSpaceOnUse">
<stop stop-color="#FF31D9"/>
<stop offset="1" stop-color="#FF5BE1" stop-opacity="0"/>
</linearGradient>
</defs>
</svg>
