<svg width="164" height="48" viewBox="0 0 164 48" fill="none" xmlns="http://www.w3.org/2000/svg">
<g clip-path="url(#clip0_229_39)">
<path d="M13.128 13.04C13.128 14.7467 13.7253 16.1547 14.92 17.264C16.1147 18.3307 17.9067 19.5467 20.296 20.912C22.0453 21.8933 23.432 22.7467 24.456 23.472C25.48 24.1973 26.3547 25.1147 27.08 26.224C27.8053 27.3333 28.168 28.6133 28.168 30.064C28.168 32.7093 27.1013 34.8 24.968 36.336C22.8773 37.8293 20.0613 38.576 16.52 38.576C13.4907 38.576 11.0373 38 9.16 36.848C7.32533 35.696 6.408 34.1387 6.408 32.176C6.408 30.896 6.83467 29.8933 7.688 29.168C8.584 28.4 9.69333 28.016 11.016 28.016C12.04 28.016 13.0213 28.272 13.96 28.784C12.6373 29.4667 11.976 30.8107 11.976 32.816C11.976 34.0107 12.4027 35.0347 13.256 35.888C14.152 36.6987 15.3467 37.104 16.84 37.104C18.376 37.104 19.5707 36.6773 20.424 35.824C21.32 34.9707 21.768 33.904 21.768 32.624C21.768 31.1307 21.2133 29.9147 20.104 28.976C19.0373 27.9947 17.3947 26.864 15.176 25.584C13.4267 24.6453 11.976 23.7707 10.824 22.96C9.71467 22.1493 8.776 21.1467 8.008 19.952C7.24 18.7573 6.856 17.3493 6.856 15.728C6.856 13.296 7.88 11.3333 9.928 9.84C12.0187 8.304 14.728 7.536 18.056 7.536C20.9147 7.536 23.24 8.09067 25.032 9.2C26.824 10.2667 27.72 11.696 27.72 13.488C27.72 14.64 27.336 15.5573 26.568 16.24C25.8 16.88 24.7547 17.2 23.432 17.2C22.4933 17.2 21.512 16.9653 20.488 16.496C21.0427 16.0693 21.4693 15.536 21.768 14.896C22.0667 14.256 22.216 13.5947 22.216 12.912C22.216 11.8453 21.832 10.9493 21.064 10.224C20.296 9.456 19.1653 9.072 17.672 9.072C16.2213 9.072 15.0907 9.456 14.28 10.224C13.512 10.992 13.128 11.9307 13.128 13.04ZM46.6445 35.264C46.6445 36.224 46.9485 36.704 47.5565 36.704C48.1645 36.704 48.7565 36.464 49.3325 35.984L49.7165 36.464C48.5325 37.776 47.1405 38.432 45.5405 38.432C44.3885 38.432 43.5565 38.144 43.0445 37.568C42.5645 36.96 42.3245 35.984 42.3245 34.64V27.296C42.3245 25.44 41.7325 24.512 40.5485 24.512C39.3965 24.512 38.4685 25.296 37.7645 26.864C37.0605 28.432 36.7085 30.48 36.7085 33.008C36.7085 34 36.7725 34.8 36.9005 35.408C37.0605 35.984 37.3165 36.528 37.6685 37.04L38.0525 37.52L37.6685 38H30.7085L30.4205 37.184L31.0925 37.04C31.6045 36.912 31.9405 36.72 32.1005 36.464C32.2605 36.176 32.3405 35.632 32.3405 34.832V17.696C32.3405 17.44 32.2765 17.232 32.1485 17.072C32.0525 16.912 31.9085 16.832 31.7165 16.832H30.2285L30.0365 16.352C30.6445 15.776 31.4285 15.328 32.3885 15.008C33.3805 14.656 34.3565 14.48 35.3165 14.48C35.7325 14.48 36.0685 14.576 36.3245 14.768C36.5805 14.928 36.7085 15.168 36.7085 15.488V27.344C37.1565 25.84 37.9405 24.592 39.0605 23.6C40.2125 22.576 41.4285 22.064 42.7085 22.064C44.0845 22.064 45.0765 22.512 45.6845 23.408C46.3245 24.304 46.6445 25.728 46.6445 27.68V35.264ZM50.6559 30.272C50.6559 27.744 51.3759 25.744 52.8159 24.272C54.2879 22.8 56.2719 22.064 58.7679 22.064C61.2639 22.064 63.2479 22.816 64.7199 24.32C66.1919 25.792 66.9279 27.776 66.9279 30.272C66.9279 32.768 66.1919 34.752 64.7199 36.224C63.2479 37.696 61.2639 38.432 58.7679 38.432C56.2719 38.432 54.2879 37.696 52.8159 36.224C51.3759 34.752 50.6559 32.768 50.6559 30.272ZM62.0799 30.368C62.0799 28.224 61.7759 26.48 61.1679 25.136C60.5599 23.76 59.7919 23.072 58.8639 23.072C57.8399 23.072 57.0079 23.744 56.3679 25.088C55.7279 26.4 55.4079 28.128 55.4079 30.272C55.4079 32.448 55.6959 34.176 56.2719 35.456C56.8799 36.736 57.6799 37.376 58.6719 37.376C59.6639 37.376 60.4799 36.736 61.1199 35.456C61.7599 34.144 62.0799 32.448 62.0799 30.368ZM75.9406 38.432C74.4046 38.432 73.2046 37.936 72.3406 36.944C71.5086 35.92 70.9326 34.288 70.6126 32.048L69.6046 25.136C69.5726 24.88 69.5086 24.704 69.4126 24.608C69.3166 24.512 69.1726 24.464 68.9806 24.464H67.6846L67.5406 23.936C68.1806 23.36 68.9486 22.912 69.8446 22.592C70.7406 22.24 71.6206 22.064 72.4846 22.064C72.9646 22.064 73.3006 22.208 73.4926 22.496C73.7166 22.784 73.8926 23.344 74.0206 24.176L75.2686 32.816C75.4926 34.384 75.7486 35.456 76.0366 36.032C76.3246 36.608 76.7566 36.896 77.3326 36.896C78.2286 36.896 78.9326 36.352 79.4446 35.264C79.9886 34.144 80.2606 32.672 80.2606 30.848C80.2606 28.992 80.0206 27.088 79.5406 25.136C79.4766 24.88 79.4126 24.704 79.3486 24.608C79.2846 24.512 79.1406 24.464 78.9166 24.464H77.6686L77.5246 23.936C78.1326 23.36 78.8846 22.912 79.7806 22.592C80.6766 22.24 81.5726 22.064 82.4686 22.064C82.9166 22.064 83.2526 22.224 83.4766 22.544C83.7006 22.832 83.8606 23.376 83.9566 24.176L85.1566 32.576C85.4126 34.304 85.6846 35.456 85.9726 36.032C86.2926 36.608 86.6766 36.896 87.1246 36.896C87.9886 36.896 88.6766 36.256 89.1886 34.976C89.7326 33.664 90.0046 31.968 90.0046 29.888C90.0046 28.48 89.8606 27.264 89.5726 26.24C89.3166 25.184 88.8846 24.256 88.2766 23.456L87.8926 22.928L88.2286 22.544L92.2606 22.064C92.3566 23.312 92.4046 24.416 92.4046 25.376C92.4046 29.472 91.8126 32.672 90.6286 34.976C89.4766 37.28 87.8126 38.432 85.6366 38.432C84.3246 38.432 83.3326 38.096 82.6606 37.424C81.9886 36.752 81.4286 35.52 80.9806 33.728C80.3406 36.864 78.6606 38.432 75.9406 38.432ZM109.043 26.288C109.043 27.344 108.723 28.176 108.083 28.784C107.443 29.392 106.659 29.696 105.731 29.696C104.995 29.696 104.323 29.504 103.715 29.12C104.419 28.48 104.771 27.584 104.771 26.432C104.771 25.504 104.579 24.752 104.195 24.176C103.811 23.568 103.251 23.264 102.515 23.264C101.683 23.264 100.995 23.92 100.451 25.232C99.9394 26.512 99.6834 28.192 99.6834 30.272C99.6834 32.256 100.051 33.856 100.787 35.072C101.555 36.256 102.627 36.848 104.003 36.848C104.963 36.848 105.779 36.672 106.451 36.32C107.155 35.968 107.811 35.456 108.419 34.784L108.995 35.168C108.323 36.128 107.443 36.912 106.355 37.52C105.267 38.128 104.003 38.432 102.563 38.432C100.323 38.432 98.4834 37.68 97.0434 36.176C95.6034 34.672 94.8834 32.736 94.8834 30.368C94.8834 27.84 95.6354 25.824 97.1394 24.32C98.6434 22.816 100.643 22.064 103.139 22.064C104.899 22.064 106.323 22.464 107.411 23.264C108.499 24.032 109.043 25.04 109.043 26.288ZM116.048 27.392C115.376 27.776 114.576 27.968 113.648 27.968C112.976 27.968 112.448 27.776 112.064 27.392C111.68 26.976 111.488 26.4 111.488 25.664C111.488 24.576 112.016 23.712 113.072 23.072C114.16 22.4 115.568 22.064 117.296 22.064C119.344 22.064 120.944 22.512 122.096 23.408C123.28 24.304 123.872 25.52 123.872 27.056V35.36C123.872 36.256 124.192 36.704 124.832 36.704C125.44 36.704 126.032 36.464 126.608 35.984L126.992 36.464C125.808 37.776 124.4 38.432 122.768 38.432C121.808 38.432 121.072 38.192 120.56 37.712C120.08 37.232 119.792 36.48 119.696 35.456H119.504C118.992 36.384 118.304 37.12 117.44 37.664C116.608 38.176 115.648 38.432 114.56 38.432C113.344 38.432 112.368 38.064 111.632 37.328C110.896 36.56 110.528 35.568 110.528 34.352C110.528 32.976 111.184 31.888 112.496 31.088C113.808 30.288 115.584 29.888 117.824 29.888C118.24 29.888 118.832 29.92 119.6 29.984V27.584C119.6 26.016 119.408 24.896 119.024 24.224C118.64 23.52 118.016 23.168 117.152 23.168C116.544 23.168 116.064 23.36 115.712 23.744C115.36 24.128 115.184 24.624 115.184 25.232C115.184 26.192 115.472 26.912 116.048 27.392ZM116.768 36.032C118.656 36.032 119.6 34.32 119.6 30.896C118 30.896 116.8 31.168 116 31.712C115.2 32.224 114.8 32.96 114.8 33.92C114.8 34.56 114.976 35.072 115.328 35.456C115.68 35.84 116.16 36.032 116.768 36.032ZM132.332 25.328C132.332 26.128 132.636 26.784 133.244 27.296C133.884 27.776 134.844 28.32 136.124 28.928C137.18 29.44 137.996 29.888 138.572 30.272C139.148 30.624 139.644 31.104 140.06 31.712C140.508 32.32 140.732 33.04 140.732 33.872C140.732 35.248 140.076 36.352 138.764 37.184C137.484 38.016 135.756 38.432 133.58 38.432C131.948 38.432 130.604 38.144 129.548 37.568C128.492 36.96 127.964 36.176 127.964 35.216C127.964 34.576 128.204 34.048 128.684 33.632C129.164 33.184 129.756 32.96 130.46 32.96C131.004 32.96 131.548 33.072 132.092 33.296C131.548 33.712 131.276 34.384 131.276 35.312C131.276 35.952 131.5 36.448 131.948 36.8C132.396 37.152 132.94 37.328 133.58 37.328C134.316 37.328 134.94 37.136 135.452 36.752C135.996 36.368 136.268 35.824 136.268 35.12C136.268 34.448 135.996 33.92 135.452 33.536C134.94 33.12 134.124 32.64 133.004 32.096C131.98 31.616 131.148 31.184 130.508 30.8C129.9 30.384 129.372 29.84 128.924 29.168C128.476 28.496 128.252 27.68 128.252 26.72C128.252 25.28 128.86 24.144 130.076 23.312C131.292 22.48 132.828 22.064 134.684 22.064C136.316 22.064 137.644 22.368 138.668 22.976C139.724 23.584 140.252 24.368 140.252 25.328C140.252 26.064 140.028 26.608 139.58 26.96C139.132 27.312 138.556 27.488 137.852 27.488C137.18 27.488 136.588 27.344 136.076 27.056C136.652 26.512 136.94 25.824 136.94 24.992C136.94 24.448 136.732 24.016 136.316 23.696C135.9 23.344 135.356 23.168 134.684 23.168C133.948 23.168 133.372 23.376 132.956 23.792C132.54 24.208 132.332 24.72 132.332 25.328ZM151.971 36.848C152.899 36.848 153.715 36.688 154.419 36.368C155.123 36.016 155.811 35.44 156.483 34.64L157.059 35.072C156.323 36.128 155.379 36.96 154.227 37.568C153.107 38.144 151.875 38.432 150.531 38.432C149.059 38.432 147.731 38.08 146.547 37.376C145.395 36.672 144.483 35.712 143.811 34.496C143.139 33.248 142.803 31.84 142.803 30.272C142.803 27.776 143.555 25.792 145.059 24.32C146.595 22.816 148.627 22.064 151.155 22.064C152.947 22.064 154.403 22.496 155.523 23.36C156.675 24.192 157.251 25.28 157.251 26.624C157.251 28.16 156.595 29.392 155.283 30.32C154.003 31.216 152.243 31.664 150.003 31.664C149.107 31.664 148.291 31.6 147.555 31.472C147.715 33.136 148.195 34.448 148.995 35.408C149.795 36.368 150.787 36.848 151.971 36.848ZM150.627 23.216C149.635 23.216 148.851 23.824 148.275 25.04C147.731 26.224 147.459 27.888 147.459 30.032V30.8C147.811 30.8 148.243 30.768 148.755 30.704C150.099 30.544 151.123 30.112 151.827 29.408C152.563 28.672 152.931 27.712 152.931 26.528C152.931 25.568 152.707 24.784 152.259 24.176C151.843 23.536 151.299 23.216 150.627 23.216Z" fill="white"/>
</g>
<defs>
<clipPath id="clip0_229_39">
<rect width="164" height="48" fill="white"/>
</clipPath>
</defs>
</svg>
