<svg width="45" height="42" viewBox="0 0 45 42" fill="none" xmlns="http://www.w3.org/2000/svg">
<path d="M35.0234 3H10.9766C7.6758 3 5 5.74441 5 9.12981V32.8702C5 36.2556 7.6758 39 10.9766 39H35.0234C38.3242 39 41 36.2556 41 32.8702V9.12981C41 5.74441 38.3242 3 35.0234 3Z" fill="#001E36"/>
<path d="M12.2001 28.9494V13.1471C12.2001 13.0319 12.2496 12.9742 12.3487 12.9741L12.5054 12.9736L12.7732 12.9707L13.1454 12.9634L14.3922 12.9371L15.7291 12.9123C16.1993 12.9041 16.6654 12.9 17.1275 12.8999C18.3816 12.8999 19.4377 13.0565 20.296 13.3698C21.0704 13.6312 21.7766 14.0621 22.363 14.6309C22.8603 15.1239 23.2445 15.7188 23.4893 16.3745C23.7208 17.0126 23.8381 17.6864 23.836 18.3651C23.836 19.6843 23.5306 20.7724 22.92 21.6295C22.3228 22.4656 21.4898 23.1051 20.5272 23.4663L20.4446 23.4966C19.4396 23.8711 18.3265 24.0065 17.1058 24.015L16.9161 24.0156L16.6346 24.0141L16.4926 24.0121L16.3343 24.0083L16.2389 24.0046L16.181 24.0016L16.0384 23.9964L15.8641 23.9928L15.6018 23.9909L15.5434 23.9908V28.9247C15.5478 28.9549 15.545 28.9857 15.5353 29.0147C15.5257 29.0437 15.5094 29.0701 15.4878 29.0917C15.4661 29.1133 15.4398 29.1295 15.4107 29.1392C15.3817 29.1488 15.3509 29.1516 15.3206 29.1473H12.3735C12.2578 29.1474 12.2 29.0814 12.2001 28.9494ZM15.5436 15.9416V21.0957C15.7579 21.1123 15.9558 21.1205 16.1374 21.1204H16.9544C17.5177 21.1185 18.0777 21.0347 18.6168 20.8717L18.7243 20.8382C19.2148 20.6928 19.6531 20.4094 19.9869 20.022C20.297 19.6565 20.4577 19.1529 20.4689 18.5111L20.4696 18.4393C20.4826 17.9609 20.358 17.4889 20.1105 17.0792C19.8505 16.6829 19.4745 16.3763 19.0338 16.2012C18.4584 15.9777 17.8438 15.8726 17.2267 15.8922L16.9128 15.8931L16.7147 15.8948L16.5257 15.8973L16.2591 15.9024L16.0645 15.9079L15.9635 15.9117L15.8284 15.918L15.7134 15.9251L15.6478 15.9302L15.5911 15.9357L15.5662 15.9386L15.5436 15.9416ZM33.4069 20.1585C32.9751 19.9369 32.5171 19.7704 32.0436 19.6629L31.9341 19.6392C31.4132 19.5199 30.8815 19.4541 30.3473 19.443L30.2138 19.4414C29.9006 19.4329 29.5878 19.4704 29.2855 19.5527C29.0931 19.5956 28.9221 19.7051 28.8026 19.8617C28.7219 19.9871 28.679 20.1331 28.679 20.2822C28.6835 20.4268 28.7357 20.5659 28.8274 20.6778C28.9588 20.8312 29.1168 20.9599 29.2937 21.0575L29.3473 21.0859C29.7003 21.2757 30.0639 21.4449 30.4365 21.5927C31.2672 21.8707 32.061 22.2486 32.8004 22.718C33.3041 23.0356 33.721 23.4732 34.0135 23.9916C34.2593 24.4825 34.3824 25.0255 34.3724 25.5742C34.3871 26.2989 34.1798 27.0108 33.7782 27.6145C33.3483 28.2273 32.7511 28.7037 32.0578 28.9869C31.3317 29.3056 30.4401 29.4703 29.3829 29.4811L29.2731 29.4816C28.6178 29.4882 27.9634 29.4309 27.3191 29.3106L27.1813 29.2838C26.6389 29.1844 26.111 29.0183 25.6095 28.7891C25.5591 28.7632 25.5164 28.7243 25.486 28.6765C25.4555 28.6287 25.4384 28.5736 25.4362 28.517V25.8216C25.4333 25.7954 25.4375 25.769 25.4484 25.745C25.4593 25.721 25.4765 25.7005 25.4982 25.6855C25.5194 25.6735 25.5439 25.6682 25.5682 25.6704C25.5925 25.6726 25.6156 25.6822 25.6343 25.6979C26.2265 26.0467 26.8696 26.3012 27.5403 26.4522C28.1315 26.6003 28.7379 26.6791 29.3473 26.6872C29.9248 26.6872 30.3497 26.613 30.6221 26.4646C30.7451 26.4082 30.8491 26.3175 30.9216 26.2034C30.9941 26.0893 31.0319 25.9567 31.0306 25.8216C31.0306 25.6075 30.9069 25.4015 30.6593 25.2034C30.5555 25.1205 30.4067 25.0302 30.2129 24.9327L30.1202 24.8872L30.0213 24.8407L29.9695 24.8171L29.8608 24.769L29.8041 24.7445L29.6859 24.6949L29.6244 24.6697L29.4967 24.6186L29.4304 24.5927L29.293 24.5399L29.1493 24.4861C28.3719 24.2161 27.6349 23.8417 26.9585 23.3733C26.4746 23.0372 26.0762 22.5925 25.7951 22.075C25.5518 21.5877 25.4287 21.0492 25.4362 20.5047C25.4347 19.8504 25.6146 19.2084 25.956 18.65C26.3452 18.0351 26.9039 17.5455 27.565 17.2405C28.291 16.878 29.1986 16.6966 30.2879 16.6963C30.9258 16.6912 31.5632 16.7367 32.194 16.8324C32.6507 16.8903 33.0972 17.011 33.5209 17.191C33.5891 17.2105 33.644 17.2608 33.6694 17.327C33.6863 17.3874 33.6945 17.4497 33.6942 17.5125V20.0102C33.6978 20.0692 33.6694 20.1258 33.62 20.1585C33.5869 20.1749 33.5504 20.1835 33.5134 20.1835C33.4765 20.1835 33.44 20.1749 33.4069 20.1585Z" fill="#31A8FF"/>
</svg>
