<svg width="45" height="42" viewBox="0 0 45 42" fill="none" xmlns="http://www.w3.org/2000/svg">
<path d="M4.5 6C4.5 4.34315 5.84315 3 7.5 3H37.5C39.1569 3 40.5 4.34315 40.5 6V36C40.5 37.6569 39.1569 39 37.5 39H7.5C5.84315 39 4.5 37.6569 4.5 36V6Z" fill="white"/>
<path d="M38.6875 8.99062L37.517 28.2844L26.3977 3L38.6875 8.99062ZM30.9731 33.9375L22.5938 39L14.2144 33.9375L15.9168 29.5781H29.2973L30.9731 33.9375ZM22.5938 12.5906L26.983 23.8969H18.2045L22.5938 12.5906ZM7.67045 28.2844L6.5 8.99062L18.7898 3L7.67045 28.2844Z" fill="#C6D3D0"/>
<path d="M38.6875 8.99062L37.517 28.2844L26.3977 3L38.6875 8.99062ZM30.9731 33.9375L22.5938 39L14.2144 33.9375L15.9168 29.5781H29.2973L30.9731 33.9375ZM22.5938 12.5906L26.983 23.8969H18.2045L22.5938 12.5906ZM7.67045 28.2844L6.5 8.99062L18.7898 3L7.67045 28.2844Z" fill="#C6D3D0"/>
</svg>
