<svg width="45" height="42" viewBox="0 0 45 42" fill="none" xmlns="http://www.w3.org/2000/svg">
<path fill-rule="evenodd" clip-rule="evenodd" d="M22.4999 3C12.3084 3 4.04414 11.2624 4.04414 21.4557C4.04414 29.6102 9.33226 36.5279 16.6653 38.9686C17.5873 39.1397 17.926 38.5682 17.926 38.0808C17.926 37.6407 17.9088 36.1869 17.9009 34.6447C12.7665 35.7611 11.6831 32.4672 11.6831 32.4672C10.8435 30.3339 9.63391 29.7667 9.63391 29.7667C7.95912 28.6213 9.76013 28.6451 9.76013 28.6451C11.6131 28.775 12.5892 30.547 12.5892 30.547C14.2353 33.3678 16.9067 32.5524 17.9599 32.0812C18.1255 30.8883 18.6038 30.0739 19.1316 29.613C15.0324 29.1469 10.7228 27.5641 10.7228 20.4924C10.7228 18.4775 11.4441 16.8311 12.6247 15.5383C12.4328 15.0738 11.8011 13.1967 12.8032 10.6545C12.8032 10.6545 14.3527 10.1585 17.8795 12.5463C19.352 12.1371 20.9311 11.9314 22.4999 11.9244C24.0677 11.9314 25.6477 12.1365 27.1229 12.5457C30.6455 10.1579 32.1932 10.6539 32.1932 10.6539C33.1977 13.1958 32.566 15.0732 32.3744 15.5377C33.5578 16.8305 34.2738 18.4768 34.2738 20.4918C34.2738 27.5803 29.9563 29.1408 25.8467 29.598C26.509 30.1707 27.0988 31.2942 27.0988 33.0158C27.0988 35.4852 27.0774 37.4726 27.0774 38.0805C27.0774 38.5716 27.4099 39.1471 28.3451 38.9659C35.6739 36.5227 40.9559 29.6072 40.9559 21.4557C40.9556 11.263 32.6922 3 22.4999 3Z" fill="#181616"/>
<path d="M11.0343 29.4985C10.9936 29.5901 10.8494 29.6176 10.718 29.555C10.5835 29.4951 10.5086 29.3701 10.552 29.2781C10.5917 29.1834 10.7363 29.1574 10.8698 29.2206C11.0043 29.2809 11.0807 29.4071 11.034 29.4988L11.0343 29.4985ZM11.7818 30.3325C11.6941 30.4141 11.522 30.3762 11.4053 30.2469C11.2843 30.1186 11.2617 29.9465 11.3512 29.8637C11.4423 29.7824 11.6091 29.8209 11.7302 29.9492C11.8506 30.0794 11.8744 30.25 11.7821 30.3328L11.7818 30.3325ZM12.5098 31.3951C12.3967 31.474 12.2115 31.4003 12.0972 31.2362C11.9841 31.0718 11.9841 30.8747 12.1003 30.7961C12.2143 30.7173 12.3967 30.7885 12.5129 30.9511C12.6253 31.1176 12.6253 31.315 12.5098 31.3951ZM13.5064 32.4223C13.4056 32.5339 13.1898 32.5039 13.0321 32.352C12.871 32.2032 12.8261 31.9914 12.9273 31.8801C13.03 31.7683 13.2466 31.7995 13.4053 31.9504C13.5663 32.099 13.6149 32.3111 13.507 32.422L13.5064 32.4223ZM14.8817 33.0186C14.8368 33.1631 14.6296 33.2288 14.4202 33.1671C14.2115 33.1038 14.0749 32.9348 14.1177 32.7887C14.1604 32.643 14.3692 32.5748 14.5798 32.6405C14.7885 32.7035 14.9251 32.8716 14.8817 33.0186ZM16.3924 33.1289C16.3976 33.2811 16.2203 33.407 16.0012 33.4101C15.7802 33.4153 15.6014 33.2918 15.5993 33.142C15.5993 32.9883 15.7729 32.8639 15.9935 32.8596C16.2127 32.8557 16.3927 32.9779 16.3927 33.1286L16.3924 33.1289ZM17.7976 32.8899C17.8239 33.0381 17.6714 33.1906 17.4535 33.2313C17.2396 33.271 17.0409 33.1787 17.0134 33.0317C16.9871 32.8795 17.1424 32.727 17.3563 32.6876C17.5745 32.65 17.7701 32.7392 17.7976 32.8899Z" fill="#181616"/>
</svg>
