<svg width="45" height="42" viewBox="0 0 45 42" fill="none" xmlns="http://www.w3.org/2000/svg">
<path d="M9.62682 35.2796L6.7625 3.15186H38.2375L35.3703 35.2747L22.4809 38.8481L9.62682 35.2796Z" fill="#1572B6"/>
<path d="M22.5003 36.1171L32.9157 33.2294L35.3661 5.77881H22.5003V36.1171Z" fill="#33A9DC"/>
<path d="M22.5003 17.4187H27.7144L28.0745 13.3837H22.5003V9.44336H32.381L32.2864 10.5006L31.3177 21.359H22.5003V17.4187Z" fill="white"/>
<path d="M22.5236 27.652L22.5063 27.6571L18.1181 26.4722L17.8374 23.3296H13.8826L14.4344 29.5166L22.5057 31.7567L22.5236 31.7516V27.652Z" fill="#EBEBEB"/>
<path d="M27.3794 21.1924L26.9047 26.4692L22.51 27.6555V31.7551L30.5878 29.5164L30.6471 28.8506L31.3325 21.1924H27.3794Z" fill="white"/>
<path d="M22.5137 9.44336V13.3837H12.996L12.917 12.4983L12.7376 10.5006L12.6433 9.44336H22.5137ZM22.5003 17.4192V21.3596H18.1673L18.0884 20.4741L17.9087 18.4765L17.8146 17.4192H22.5003Z" fill="#EBEBEB"/>
</svg>
