<svg width="45" height="42" viewBox="0 0 45 42" fill="none" xmlns="http://www.w3.org/2000/svg">
<path d="M9.62677 35.2796L6.76245 3.15186H38.2375L35.3703 35.2747L22.4809 38.8481L9.62677 35.2796Z" fill="white"/>
<path d="M22.5002 36.1171L32.9157 33.2294L35.366 5.77881H22.5002V36.1171Z" fill="#F0F3F2"/>
<path d="M22.5002 17.4187H27.7144L28.0745 13.3837H22.5002V9.44336H32.3809L32.2863 10.5006L31.3177 21.359H22.5002V17.4187Z" fill="#C6D3D0"/>
<path d="M22.5235 27.652L22.5062 27.6571L18.118 26.4722L17.8373 23.3296H13.8824L14.4343 29.5166L22.5056 31.7567L22.5235 31.7516V27.652Z" fill="#C6D3D0"/>
<path d="M27.3793 21.1924L26.9046 26.4692L22.5099 27.6555V31.7551L30.5877 29.5164L30.647 28.8506L31.3325 21.1924H27.3793Z" fill="#C6D3D0"/>
<path d="M22.5136 9.44336V13.3837H12.9959L12.917 12.4983L12.7375 10.5006L12.6432 9.44336H22.5136ZM22.5002 17.4192V21.3596H18.1673L18.0884 20.4741L17.9086 18.4765L17.8146 17.4192H22.5002Z" fill="#C6D3D0"/>
</svg>
