<svg width="45" height="42" viewBox="0 0 45 42" fill="none" xmlns="http://www.w3.org/2000/svg">
<path d="M4.5 3H40.5V39H4.5V3Z" fill="#F7DF1E"/>
<path d="M13.9657 33.0842L16.7206 31.4169C17.2521 32.3592 17.7356 33.1566 18.8953 33.1566C20.007 33.1566 20.708 32.7218 20.708 31.0303V19.5275H24.091V31.0781C24.091 34.5821 22.0371 36.1771 19.0403 36.1771C16.334 36.1771 14.7631 34.7755 13.9656 33.0839M25.9286 32.7216L28.6831 31.1268C29.4083 32.311 30.3508 33.1809 32.0181 33.1809C33.4199 33.1809 34.3138 32.48 34.3138 31.5134C34.3138 30.3535 33.3955 29.9426 31.8489 29.2662L31.0033 28.9034C28.5625 27.8646 26.9435 26.5596 26.9435 23.8047C26.9435 21.2673 28.8766 19.334 31.8974 19.334C34.0481 19.334 35.5947 20.0832 36.7062 22.0406L34.072 23.7323C33.4919 22.6932 32.8639 22.2825 31.8973 22.2825C30.9064 22.2825 30.2781 22.9108 30.2781 23.7323C30.2781 24.7472 30.9064 25.1582 32.3563 25.7866L33.202 26.149C36.0778 27.3815 37.6968 28.638 37.6968 31.4651C37.6968 34.5102 35.3045 36.1775 32.0905 36.1775C28.9491 36.1775 26.9191 34.6793 25.9284 32.7218" fill="black"/>
</svg>
