<svg width="45" height="42" viewBox="0 0 45 42" fill="none" xmlns="http://www.w3.org/2000/svg">
<path d="M16.1666 40.0002C19.672 40.0002 22.4999 37.1723 22.4999 33.6668V27.3335H16.1666C12.6612 27.3335 9.83328 30.1614 9.83328 33.6668C9.83328 37.1723 12.6612 40.0002 16.1666 40.0002Z" fill="#0ACF83"/>
<path d="M9.83328 21.0003C9.83328 17.4949 12.6612 14.667 16.1666 14.667H22.4999V27.3337H16.1666C12.6612 27.3337 9.83328 24.5057 9.83328 21.0003Z" fill="#A259FF"/>
<path d="M9.83328 8.33333C9.83328 4.82791 12.6612 2 16.1666 2H22.4999V14.6667H16.1666C12.6612 14.6667 9.83328 11.8388 9.83328 8.33333Z" fill="#F24E1E"/>
<path d="M22.5 2H28.8334C32.3388 2 35.1667 4.82791 35.1667 8.33333C35.1667 11.8388 32.3388 14.6667 28.8334 14.6667H22.5V2Z" fill="#FF7262"/>
<path d="M35.1667 21.0003C35.1667 24.5057 32.3388 27.3337 28.8334 27.3337C25.3279 27.3337 22.5 24.5057 22.5 21.0003C22.5 17.4949 25.3279 14.667 28.8334 14.667C32.3388 14.667 35.1667 17.4949 35.1667 21.0003Z" fill="#1ABCFE"/>
</svg>
