<svg width="45" height="42" viewBox="0 0 45 42" fill="none" xmlns="http://www.w3.org/2000/svg">
<path d="M20.1527 12.673C17.1532 9.63651 14.1555 6.59614 11.1598 3.55189C10.8335 3.22259 10.373 2.99237 10.2565 2.47949H34.4201C34.4201 5.9764 34.4201 9.45292 34.4405 12.9411C34.4405 13.7454 34.3269 14.4215 33.3099 14.4244L22.1343 14.4389L20.1527 12.673Z" fill="#8DDBFD"/>
<path d="M22.1313 14.4389L33.3069 14.4244C34.3239 14.4244 34.4434 13.7454 34.4376 12.9411C34.4376 9.44418 34.4376 5.96766 34.4172 2.47949H35C34.9796 6.15125 34.9213 9.82593 34.9679 13.4977C34.9679 14.5963 34.7581 14.9955 33.5517 14.9693C29.9265 14.8964 26.2985 14.9693 22.6734 14.9868L22.2945 14.9431L22.1313 14.4389Z" fill="#81C9DF"/>
<path d="M22.2975 14.9433L22.6763 14.987L34.8514 26.757L34.56 27.3194H22.5102C18.4159 27.1767 14.3187 27.2058 10.2215 27.3194C9.80768 25.2796 10.1137 23.196 10.0466 21.1357C9.99418 19.4456 10.0816 17.7496 10.0204 16.0594C9.98544 15.1852 10.271 14.8937 11.1627 14.8937C14.2546 14.9171 17.3464 14.8646 20.4383 14.8384L22.2975 14.9433Z" fill="#24A7FB"/>
<path d="M10.2244 27.3106C14.3216 27.2057 18.4188 27.1766 22.5131 27.3106C22.5131 30.8921 22.5131 34.4706 22.4694 38.0491C22.4694 38.5386 22.7375 39.1185 22.178 39.5207C18.5334 35.845 14.8889 32.1694 11.2443 28.4938C10.8888 28.1295 10.5683 27.7099 10.2244 27.3106Z" fill="#054FFA"/>
</svg>
