<svg width="45" height="42" viewBox="0 0 45 42" fill="none" xmlns="http://www.w3.org/2000/svg">
<path d="M10.0441 8.35156H35.0441L38.0441 29.2705L32.0441 35.5948L28.0441 38.0272L23.5693 38.898C23.2219 38.9656 22.8653 38.9712 22.516 38.9146L17.0441 38.0272L7.04413 29.2705L10.0441 8.35156Z" fill="#C6D3D0"/>
<path fill-rule="evenodd" clip-rule="evenodd" d="M22.4998 3C12.3084 3 4.04413 11.0391 4.04413 20.9569C4.04413 28.891 9.33225 35.6218 16.6653 37.9965C17.5873 38.163 17.926 37.6069 17.926 37.1326C17.926 36.7045 17.9088 35.2899 17.9009 33.7894C12.7665 34.8757 11.6831 31.6708 11.6831 31.6708C10.8435 29.5952 9.6339 29.0433 9.6339 29.0433C7.95911 27.9288 9.76012 27.952 9.76012 27.952C11.6131 28.0784 12.5892 29.8025 12.5892 29.8025C14.2353 32.5471 16.9067 31.7537 17.9599 31.2952C18.1255 30.1346 18.6038 29.3421 19.1316 28.8937C15.0324 28.4403 10.7228 26.9002 10.7228 20.0196C10.7228 18.0592 11.4441 16.4573 12.6247 15.1995C12.4328 14.7475 11.801 12.9211 12.8032 10.4477C12.8032 10.4477 14.3527 9.96504 17.8795 12.2883C19.352 11.8901 20.9311 11.69 22.4998 11.6832C24.0677 11.69 25.6477 11.8895 27.1229 12.2877C30.6455 9.96445 32.1932 10.4471 32.1932 10.4471C33.1977 12.9202 32.566 14.7469 32.3744 15.1989C33.5577 16.4567 34.2738 18.0586 34.2738 20.019C34.2738 26.916 29.9563 28.4343 25.8467 28.8792C26.509 29.4364 27.0988 30.5295 27.0988 32.2045C27.0988 34.6072 27.0774 36.5409 27.0774 37.1324C27.0774 37.6102 27.4099 38.1701 28.3451 37.9938C35.6739 35.6167 40.9559 28.8881 40.9559 20.9569C40.9556 11.0397 32.6922 3 22.4998 3Z" fill="white"/>
<path d="M11.0343 28.7825C10.9936 28.8717 10.8494 28.8985 10.718 28.8375C10.5835 28.7792 10.5086 28.6576 10.552 28.5681C10.5917 28.4759 10.7363 28.4506 10.8698 28.5122C11.0043 28.5708 11.0807 28.6936 11.034 28.7828L11.0343 28.7825ZM11.7818 29.594C11.6941 29.6734 11.522 29.6365 11.4053 29.5107C11.2843 29.3858 11.2617 29.2184 11.3512 29.1378C11.4423 29.0587 11.6091 29.0962 11.7302 29.2211C11.8506 29.3478 11.8744 29.5137 11.7821 29.5943L11.7818 29.594ZM12.5098 30.6279C12.3967 30.7046 12.2115 30.633 12.0972 30.4733C11.9841 30.3133 11.9841 30.1215 12.1003 30.0451C12.2143 29.9684 12.3967 30.0376 12.5129 30.1958C12.6253 30.3579 12.6253 30.55 12.5098 30.6279ZM13.5064 31.6273C13.4056 31.7359 13.1898 31.7067 13.0321 31.5589C12.871 31.4141 12.8261 31.208 12.9273 31.0998C13.03 30.991 13.2466 31.0213 13.4053 31.1682C13.5663 31.3127 13.6149 31.5191 13.507 31.627L13.5064 31.6273ZM14.8817 32.2075C14.8368 32.3481 14.6296 32.4121 14.4202 32.352C14.2115 32.2904 14.0749 32.126 14.1177 31.9839C14.1604 31.842 14.3692 31.7757 14.5798 31.8396C14.7885 31.9009 14.9251 32.0644 14.8817 32.2075ZM16.3924 32.3148C16.3976 32.4629 16.2203 32.5854 16.0012 32.5884C15.7802 32.5934 15.6014 32.4733 15.5993 32.3276C15.5993 32.178 15.7729 32.057 15.9935 32.0528C16.2127 32.049 16.3927 32.1679 16.3927 32.3145L16.3924 32.3148ZM17.7976 32.0823C17.8239 32.2265 17.6714 32.3749 17.4535 32.4144C17.2396 32.4531 17.0409 32.3633 17.0134 32.2203C16.9871 32.0722 17.1424 31.9238 17.3563 31.8854C17.5745 31.8489 17.7701 31.9357 17.7976 32.0823Z" fill="white"/>
</svg>
