<svg width="45" height="42" viewBox="0 0 45 42" fill="none" xmlns="http://www.w3.org/2000/svg">
<path d="M9.5494 10.1844C9.41 11.5927 9.20731 12.9984 9.14232 14.4102C8.99022 17.4673 9.7338 20.5021 11.2804 23.136C12.8386 25.8267 15.0981 27.8076 17.6261 29.5178C20.8828 31.7212 24.4721 32.7949 28.3908 32.6121C31.9348 32.4439 35.1128 31.2581 37.7982 28.8589C37.8059 28.852 37.8239 28.8589 37.8555 28.8537C37.1546 30.2476 36.1991 31.4955 35.0393 32.5319C31.55 35.7064 27.4278 36.8181 22.8096 36.4317C19.2741 36.135 16.1098 34.913 13.3474 32.6837C9.76064 29.7895 7.32668 26.1492 6.48514 21.5345C5.8959 18.2979 6.2149 15.1855 7.93133 12.318C8.39486 11.5418 8.96871 10.8355 9.4921 10.0981L9.5494 10.1844Z" fill="#F1F1F1"/>
<path d="M38.7868 20.2613C37.7734 22.4035 36.2802 23.9179 34.2319 24.8019C30.7255 26.3154 27.1524 26.5465 23.6469 24.87C20.3722 23.3047 17.8758 20.8822 16.6169 17.3835C15.6762 14.7704 15.5599 12.1038 16.7102 9.50107C17.0522 8.73008 17.55 8.02894 17.9759 7.2959L18.1144 7.3623C18.0554 7.92459 17.9887 8.48343 17.9434 9.04744C17.7356 11.4544 18.0503 13.7683 19.1749 15.9329C20.338 18.1751 22.1066 19.8137 24.2207 21.1073C25.8756 22.1181 27.6099 22.9287 29.5522 23.184C32.53 23.5755 35.2667 22.9882 37.6836 21.1246C38.0205 20.8624 38.3549 20.5985 38.7868 20.2613Z" fill="#F1F1F1"/>
<path d="M37.2594 14.4335C36.809 15.1931 36.1319 15.7896 35.3249 16.1376C33.2629 17.0397 31.1539 16.9353 29.1416 16.0729C26.2091 14.8164 24.5653 12.4879 24.136 9.31077C23.965 8.04994 24.4866 6.39757 25.294 5.49463C24.9228 8.83904 26.1672 11.415 28.7884 13.3348C31.3968 15.2407 34.2071 15.7366 37.2594 14.4335Z" fill="#F1F1F1"/>
</svg>
