<svg width="14" height="16" viewBox="0 0 14 16" fill="none" xmlns="http://www.w3.org/2000/svg">
<path d="M3.11099 3.2V0.8C3.11099 0.358176 3.45922 0 3.88878 0H13.2222C13.6518 0 14 0.358176 14 0.8V12C14 12.4418 13.6518 12.8 13.2222 12.8H10.8889V15.1993C10.8889 15.6415 10.5389 16 10.1058 16H0.782966C0.350463 16 0 15.6443 0 15.1993L0.00202221 4.0007C0.00209999 3.55849 0.352057 3.2 0.785113 3.2H3.11099ZM4.66656 3.2H10.8889V11.2H12.4444V1.6H4.66656V3.2ZM3.11099 7.2V8.8H7.77771V7.2H3.11099ZM3.11099 10.4V12H7.77771V10.4H3.11099Z" fill="white"/>
</svg>
